<svg width="112" height="38" viewBox="0 0 112 38" fill="none" xmlns="http://www.w3.org/2000/svg">
<path d="M16.2192 4.39402C17.1763 2.41091 18.9535 0.946146 21.0829 0.385398C21.5523 0.261794 22.0357 0.199219 22.521 0.199219H26.9604L22.8992 3.81892C22.4107 4.25437 22.0123 4.7815 21.7269 5.3704L5.90913 37.9991H0L16.2192 4.39402Z" fill="white"/>
<path d="M25.6531 3.97779C26.4851 2.25382 28.0107 0.964777 29.8494 0.432173C30.3829 0.277645 30.9355 0.199219 31.4909 0.199219H38.4094L33.7452 3.57687C32.9284 4.16838 32.2739 4.95621 31.8421 5.86759L16.6194 37.9991L9.23302 37.9991L25.6531 3.97779Z" fill="white"/>
<path d="M35.499 4.85893C36.194 3.44554 37.2749 2.25785 38.6169 1.43331C39.9301 0.626392 41.4413 0.199219 42.9826 0.199219H52.8129L48.3292 3.44619C47.3935 4.12382 46.64 5.02252 46.136 6.06213L30.6536 37.9991H19.2047L35.499 4.85893Z" fill="white"/>
<path d="M60.7673 15.2317H54.949L53.1865 19.4606H50.082L58.3839 0.326301H61.7387L64.1221 19.4606H61.258L60.7673 15.2317ZM60.3968 12.047L59.5456 4.34633L56.0005 12.047H60.3968Z" fill="white"/>
<path d="M74.1464 9.24085H80.7158L79.394 17.4506C78.6195 18.1032 77.6682 18.6557 76.5399 19.1082C75.4183 19.5607 74.2733 19.7869 73.105 19.7869C71.289 19.7869 69.897 19.2518 68.929 18.1815C67.6071 16.7197 66.9461 14.6009 66.9461 11.8252C66.9461 9.96306 67.2299 8.17928 67.7974 6.47381C68.4783 4.42029 69.4464 2.82794 70.7015 1.69677C71.9567 0.565589 73.4321 0 75.1279 0C76.8236 0 78.1822 0.51338 79.2037 1.54014C80.2318 2.5669 80.9128 4.06354 81.2466 6.03005L78.4326 6.44771C78.1856 5.36874 77.785 4.55516 77.2309 4.00698C76.6834 3.45879 75.9924 3.1847 75.1579 3.1847C74.1832 3.1847 73.2886 3.51535 72.4741 4.17665C71.6596 4.83796 71.022 5.86037 70.5613 7.24389C70.1007 8.6274 69.8703 10.1371 69.8703 11.7729C69.8703 13.3827 70.1507 14.5748 70.7115 15.3492C71.2723 16.1149 72.0935 16.4978 73.1751 16.4978C73.8227 16.4978 74.4869 16.3803 75.1679 16.1454C75.8489 15.9017 76.4364 15.6146 76.9304 15.2839L77.3811 12.4386H73.6357L74.1464 9.24085Z" fill="white"/>
<path d="M85.022 19.4606H81.9977L85.0721 0.326301H91.5914C92.713 0.326301 93.5843 0.478575 94.2051 0.783123C94.8327 1.07897 95.3368 1.62716 95.7173 2.42768C96.1045 3.22821 96.2981 4.19841 96.2981 5.33829C96.2981 6.96544 95.9243 8.3098 95.1765 9.37137C94.4288 10.4242 93.2972 11.0768 91.7817 11.3292C92.1689 11.7816 92.5327 12.3777 92.8732 13.1173C93.5475 14.6139 94.2986 16.7284 95.1265 19.4606H91.8818C91.6214 18.3816 91.1107 16.6979 90.3496 14.4095C89.9357 13.1739 89.4951 12.3429 89.0277 11.9165C88.7407 11.6642 88.2399 11.538 87.5256 11.538H86.2938L85.022 19.4606ZM86.7545 8.66656H88.3568C89.9791 8.66656 91.054 8.54039 91.5814 8.28805C92.1155 8.03571 92.5327 7.6398 92.8332 7.10031C93.1336 6.56083 93.2838 5.99524 93.2838 5.40355C93.2838 4.70744 93.0668 4.18536 92.6329 3.8373C92.3658 3.62847 91.7883 3.52405 90.9004 3.52405H87.5757L86.7545 8.66656Z" fill="white"/>
<path d="M97.7101 11.9557C97.7101 10.8245 97.8403 9.63241 98.1007 8.37941C98.4412 6.70005 98.9586 5.24257 99.6529 4.00698C100.354 2.77138 101.235 1.79683 102.297 1.08332C103.358 0.361107 104.567 0 105.922 0C107.738 0 109.203 0.735265 110.318 2.2058C111.44 3.67633 112.001 5.62543 112.001 8.05311C112.001 10.0718 111.637 12.0253 110.909 13.9135C110.181 15.8017 109.193 17.2548 107.945 18.2729C106.696 19.2909 105.284 19.8 103.709 19.8C102.34 19.8 101.192 19.3953 100.264 18.5861C99.3358 17.7769 98.6782 16.7762 98.291 15.5841C97.9038 14.3834 97.7101 13.1739 97.7101 11.9557ZM100.694 11.8774C100.694 13.1913 101.002 14.292 101.616 15.1795C102.23 16.0671 103.038 16.5108 104.039 16.5108C104.854 16.5108 105.635 16.1628 106.383 15.4667C107.137 14.7619 107.758 13.7003 108.245 12.282C108.739 10.8549 108.986 9.46708 108.986 8.11837C108.986 6.61304 108.676 5.434 108.055 4.58127C107.434 3.71983 106.643 3.28912 105.682 3.28912C104.206 3.28912 103.004 4.18536 102.076 5.97784C101.155 7.77032 100.694 9.73683 100.694 11.8774Z" fill="white"/>
<path d="M50.082 37.7992L50.5061 35.1047L57.9621 23.557H51.9284L52.3789 20.6992H61.7166L61.3279 23.382L53.7924 34.9997C54.5933 34.9764 55.0557 34.9647 55.1793 34.9647C55.7447 34.9647 56.5251 34.957 57.5204 34.9414H60.577L60.1265 37.7992H50.082Z" fill="white"/>
<path d="M69.9147 34.0199H64.7821L63.2272 37.7992H60.4887L67.8122 20.6992H70.7716L72.8741 37.7992H70.3476L69.9147 34.0199ZM69.5878 31.1738L68.8369 24.2918L65.7096 31.1738H69.5878Z" fill="white"/>
<path d="M74.4819 37.7992L77.1852 20.6992H79.8531L78.7047 27.9661L84.6942 20.6992H88.2632L82.4504 27.4062L86.7172 37.7992H83.7048L80.5068 29.6575L77.9891 32.5619L77.1587 37.7992H74.4819Z" fill="white"/>
<path d="M96.0638 34.0199H90.9311L89.3763 37.7992H86.6377L93.9613 20.6992H96.9207L99.0232 37.7992H96.4967L96.0638 34.0199ZM95.7369 31.1738L94.986 24.2918L91.8587 31.1738H95.7369Z" fill="white"/>
<path d="M100.366 37.7992L100.79 35.1047L108.246 23.557H102.212L102.663 20.6992H112.001L111.612 23.382L104.076 34.9997C104.877 34.9764 105.34 34.9647 105.463 34.9647C106.029 34.9647 106.809 34.957 107.804 34.9414H110.861L110.41 37.7992H100.366Z" fill="white"/>
</svg>
