<svg width="18" height="19" viewBox="0 0 18 19" fill="none" xmlns="http://www.w3.org/2000/svg">
<g clip-path="url(#clip0_1490_16849)">
<path d="M1.5 1.58203H2.47962C2.66414 1.58203 2.75639 1.58203 2.83064 1.61785C2.89606 1.64941 2.95151 1.70017 2.99036 1.76407C3.03445 1.83659 3.0475 1.93299 3.07359 2.1258L3.42857 4.7487M3.42857 4.7487L4.21749 10.8694C4.3176 11.6461 4.36766 12.0345 4.54357 12.3268C4.69858 12.5844 4.92081 12.7892 5.18352 12.9166C5.48165 13.0612 5.85296 13.0612 6.59558 13.0612H13.014C13.7209 13.0612 14.0744 13.0612 14.3632 12.9269C14.6179 12.8086 14.8364 12.6177 14.9942 12.3758C15.1732 12.1014 15.2393 11.7349 15.3716 11.0019L16.3643 5.50054C16.4109 5.24255 16.4342 5.11355 16.4004 5.01272C16.3708 4.92427 16.3124 4.84978 16.2357 4.80254C16.1481 4.7487 16.0237 4.7487 15.7749 4.7487H3.42857ZM7.5 16.6237C7.5 17.0609 7.16421 17.4154 6.75 17.4154C6.33579 17.4154 6 17.0609 6 16.6237C6 16.1865 6.33579 15.832 6.75 15.832C7.16421 15.832 7.5 16.1865 7.5 16.6237ZM13.5 16.6237C13.5 17.0609 13.1642 17.4154 12.75 17.4154C12.3358 17.4154 12 17.0609 12 16.6237C12 16.1865 12.3358 15.832 12.75 15.832C13.1642 15.832 13.5 16.1865 13.5 16.6237Z" stroke="white" stroke-width="1.5" stroke-linecap="round" stroke-linejoin="round"/>
</g>
<defs>
<clipPath id="clip0_1490_16849">
<rect width="18" height="19" fill="white"/>
</clipPath>
</defs>
</svg>
